OFF
25 40 0
0.0   0.0  0.0    0.35  0.25  0.1
0.2   0.0  0.0    0.35  0.25  0.1
0.1   0.0  0.17   0.35  0.25  0.1
-0.1  0.0  0.17   0.35  0.25  0.1
-0.2  0.0  0.0    0.35  0.25  0.1
-0.1  0.0 -0.17   0.35  0.25  0.1
0.1   0.0 -0.17   0.35  0.25  0.1
0.0   0.6  0.0    0.3  0.45  0.15
0.15  0.6  0.0    0.3  0.45  0.15
0.075 0.6  0.13   0.3  0.45  0.15
-0.075 0.6 0.13   0.3  0.45  0.15
-0.15 0.6  0.0    0.3  0.45  0.15
-0.075 0.6 -0.13  0.3  0.45  0.15
0.075 0.6 -0.13   0.3  0.45  0.15
0.4   0.75 0.0    0.15  0.55  0.1
0.2   0.75 0.35   0.15  0.55  0.1
-0.2  0.75 0.35   0.1   0.6   0.1
-0.4  0.75 0.0    0.1   0.6   0.1
-0.2  0.75 -0.35  0.15  0.55  0.1
0.2   0.75 -0.35  0.15  0.55  0.1
0.0   1.2  0.0    0.0   0.7   0.0
0.25  1.0  0.0    0.05  0.65  0.05
0.0   1.0  0.25   0.05  0.65  0.05
-0.25 1.0  0.0    0.0   0.7   0.0
0.0   1.0 -0.25   0.05  0.65  0.05
3 1 2 8
3 2 9 8
3 2 3 9
3 3 10 9
3 3 4 10
3 4 11 10
3 4 5 11
3 5 12 11
3 5 6 12
3 6 13 12
3 6 1 13
3 1 8 13
3 0 2 1
3 0 3 2
3 0 4 3
3 0 5 4
3 0 6 5
3 0 1 6
3 7 8 9
3 7 9 10
3 7 10 11
3 7 11 12
3 7 12 13
3 7 13 8
3 14 15 21
3 15 16 22
3 16 17 23
3 17 18 23
3 18 19 24
3 19 14 21
3 21 22 20
3 22 23 20
3 23 24 20
3 24 21 20
3 14 21 19
3 19 24 18
3 15 22 16
3 16 23 17
3 14 15 21
3 21 15 22
