OFF
60 60 0
0.4   0.5  0.0    0.0   0.0   0.8
0.35  0.5  0.17   0.0   0.0   0.8
0.2   0.5  0.35   0.0   0.0   0.8
0.0   0.5  0.4    0.0   0.0   0.8
-0.2  0.5  0.35   0.0   0.0   0.8
-0.35 0.5  0.17   0.0   0.0   0.8
-0.4  0.5  0.0    0.0   0.0   0.8
-0.35 0.5 -0.17   0.0   0.0   0.8
-0.2  0.5 -0.35   0.0   0.0   0.8
0.0   0.5 -0.4    0.0   0.0   0.8
0.2   0.5 -0.35   0.0   0.0   0.8
0.35  0.5 -0.17   0.0   0.0   0.8
1.3   0.5  0.0    0.1   0.1   0.1
1.25  0.5  0.17   0.1   0.1   0.1
1.1   0.5  0.35   0.1   0.1   0.1
0.9   0.5  0.4    0.1   0.1   0.1
0.7   0.5  0.35   0.1   0.1   0.1
0.55  0.5  0.17   0.1   0.1   0.1
0.5   0.5  0.0    0.1   0.1   0.1
0.55  0.5 -0.17   0.1   0.1   0.1
0.7   0.5 -0.35   0.1   0.1   0.1
0.9   0.5 -0.4    0.1   0.1   0.1
1.1   0.5 -0.35   0.1   0.1   0.1
1.25  0.5 -0.17   0.1   0.1   0.1
2.2   0.5  0.0    0.8   0.0   0.0
2.15  0.5  0.17   0.8   0.0   0.0
2.0   0.5  0.35   0.8   0.0   0.0
1.8   0.5  0.4    0.8   0.0   0.0
1.6   0.5  0.35   0.8   0.0   0.0
1.45  0.5  0.17   0.8   0.0   0.0
1.4   0.5  0.0    0.8   0.0   0.0
1.45  0.5 -0.17   0.8   0.0   0.0
1.6   0.5 -0.35   0.8   0.0   0.0
1.8   0.5 -0.4    0.8   0.0   0.0
2.0   0.5 -0.35   0.8   0.0   0.0
2.15  0.5 -0.17   0.8   0.0   0.0
0.85  0.0  0.0    0.9   0.7   0.0
0.8   0.0  0.17   0.9   0.7   0.0
0.65  0.0  0.35   0.9   0.7   0.0
0.45  0.0  0.4    0.9   0.7   0.0
0.25  0.0  0.35   0.9   0.7   0.0
0.1   0.0  0.17   0.9   0.7   0.0
0.05  0.0  0.0    0.9   0.7   0.0
0.1   0.0 -0.17   0.9   0.7   0.0
0.25  0.0 -0.35   0.9   0.7   0.0
0.45  0.0 -0.4    0.9   0.7   0.0
0.65  0.0 -0.35   0.9   0.7   0.0
0.8   0.0 -0.17   0.9   0.7   0.0
1.75  0.0  0.0    0.0   0.6   0.2
1.7   0.0  0.17   0.0   0.6   0.2
1.55  0.0  0.35   0.0   0.6   0.2
1.35  0.0  0.4    0.0   0.6   0.2
1.15  0.0  0.35   0.0   0.6   0.2
1.0   0.0  0.17   0.0   0.6   0.2
0.95  0.0  0.0    0.0   0.6   0.2
1.0   0.0 -0.17   0.0   0.6   0.2
1.15  0.0 -0.35   0.0   0.6   0.2
1.35  0.0 -0.4    0.0   0.6   0.2
1.55  0.0 -0.35   0.0   0.6   0.2
1.7   0.0 -0.17   0.0   0.6   0.2
3 0 1 2
3 0 2 3
3 0 3 4
3 0 4 5
3 0 5 6
3 0 6 7
3 0 7 8
3 0 8 9
3 0 9 10
3 0 10 11
3 0 11 1
3 11 10 9
3 12 13 14
3 12 14 15
3 12 15 16
3 12 16 17
3 12 17 18
3 12 18 19
3 12 19 20
3 12 20 21
3 12 21 22
3 12 22 23
3 12 23 13
3 23 22 21
3 24 25 26
3 24 26 27
3 24 27 28
3 24 28 29
3 24 29 30
3 24 30 31
3 24 31 32
3 24 32 33
3 24 33 34
3 24 34 35
3 24 35 25
3 35 34 33
3 36 37 38
3 36 38 39
3 36 39 40
3 36 40 41
3 36 41 42
3 36 42 43
3 36 43 44
3 36 44 45
3 36 45 46
3 36 46 47
3 36 47 37
3 47 46 45
3 48 49 50
3 48 50 51
3 48 51 52
3 48 52 53
3 48 53 54
3 48 54 55
3 48 55 56
3 48 56 57
3 48 57 58
3 48 58 59
3 48 59 49
3 59 58 57
