OFF
20 30 0
0.0   0.0  0.0    0.4   0.25  0.1
0.15  0.0  0.0    0.4   0.25  0.1
0.075 0.0  0.13   0.4   0.25  0.1
-0.075 0.0 0.13   0.4   0.25  0.1
-0.15 0.0  0.0    0.4   0.25  0.1
-0.075 0.0 -0.13  0.4   0.25  0.1
0.075 0.0 -0.13   0.4   0.25  0.1
0.15  0.5  0.0    0.35  0.2   0.08
0.075 0.5  0.13   0.35  0.2   0.08
-0.075 0.5 0.13   0.35  0.2   0.08
-0.15 0.5  0.0    0.35  0.2   0.08
-0.075 0.5 -0.13  0.35  0.2   0.08
0.075 0.5 -0.13   0.35  0.2   0.08
0.5   0.5  0.0    0.1   0.5   0.05
0.25  0.5  0.43   0.1   0.5   0.05
-0.25 0.5  0.43   0.1   0.55  0.05
-0.5  0.5  0.0    0.1   0.55  0.05
-0.25 0.5 -0.43   0.1   0.5   0.05
0.25  0.5 -0.43   0.1   0.5   0.05
0.0   1.4  0.0    0.0   0.6   0.0
3 1 2 7
3 2 8 7
3 2 3 8
3 3 9 8
3 3 4 9
3 4 10 9
3 4 5 10
3 5 11 10
3 5 6 11
3 6 12 11
3 6 1 12
3 1 7 12
3 0 2 1
3 0 3 2
3 0 4 3
3 0 5 4
3 0 6 5
3 0 1 6
3 13 14 19
3 14 15 19
3 15 16 19
3 16 17 19
3 17 18 19
3 18 13 19
3 13 19 18
3 14 19 13
3 15 19 14
3 16 19 15
3 17 19 16
3 18 19 17
